<mxfile host="app.diagrams.net" modified="2024-02-27T10:16:53.701Z" agent="Mozilla/5.0 (Windows NT 10.0; Win64; x64) AppleWebKit/537.36 (KHTML, like Gecko) Chrome/121.0.0.0 Safari/537.36" etag="eV3ZadgoRk-i4SKP5nfy" version="23.1.5" type="github">
  <diagram name="Stránka-1" id="K8OBMTElOlUN_DQ0DWGt">
    <mxGraphModel dx="1434" dy="746" grid="1" gridSize="10" guides="1" tooltips="1" connect="1" arrows="1" fold="1" page="1" pageScale="1" pageWidth="827" pageHeight="1169" math="0" shadow="0">
      <root>
        <mxCell id="0" />
        <mxCell id="1" parent="0" />
        <mxCell id="oA63LBbkJ7_AMW4d10xA-1" value="nereg user" style="shape=umlActor;verticalLabelPosition=bottom;verticalAlign=top;html=1;outlineConnect=0;" vertex="1" parent="1">
          <mxGeometry x="40" y="120" width="30" height="60" as="geometry" />
        </mxCell>
        <mxCell id="oA63LBbkJ7_AMW4d10xA-2" value="člen" style="shape=umlActor;verticalLabelPosition=bottom;verticalAlign=top;html=1;outlineConnect=0;" vertex="1" parent="1">
          <mxGeometry x="40" y="320" width="30" height="60" as="geometry" />
        </mxCell>
        <mxCell id="oA63LBbkJ7_AMW4d10xA-3" value="Admin" style="shape=umlActor;verticalLabelPosition=bottom;verticalAlign=top;html=1;outlineConnect=0;" vertex="1" parent="1">
          <mxGeometry x="40" y="524.5" width="30" height="60" as="geometry" />
        </mxCell>
        <mxCell id="oA63LBbkJ7_AMW4d10xA-4" value="System&lt;div&gt;&lt;br/&gt;&lt;/div&gt;" style="shape=umlActor;verticalLabelPosition=bottom;verticalAlign=top;html=1;outlineConnect=0;" vertex="1" parent="1">
          <mxGeometry x="600" y="890" width="30" height="60" as="geometry" />
        </mxCell>
        <mxCell id="oA63LBbkJ7_AMW4d10xA-6" value="" style="endArrow=blockThin;html=1;rounded=0;exitX=0.5;exitY=0;exitDx=0;exitDy=0;exitPerimeter=0;endFill=0;" edge="1" parent="1" source="oA63LBbkJ7_AMW4d10xA-3">
          <mxGeometry width="50" height="50" relative="1" as="geometry">
            <mxPoint x="60" y="520" as="sourcePoint" />
            <mxPoint x="55" y="400" as="targetPoint" />
          </mxGeometry>
        </mxCell>
        <mxCell id="oA63LBbkJ7_AMW4d10xA-7" value="" style="endArrow=blockThin;html=1;rounded=0;endFill=0;" edge="1" parent="1">
          <mxGeometry width="50" height="50" relative="1" as="geometry">
            <mxPoint x="54.5" y="320" as="sourcePoint" />
            <mxPoint x="54.5" y="210" as="targetPoint" />
          </mxGeometry>
        </mxCell>
        <mxCell id="oA63LBbkJ7_AMW4d10xA-8" value="UC1 Registrace" style="ellipse;whiteSpace=wrap;html=1;" vertex="1" parent="1">
          <mxGeometry x="280" y="120" width="120" height="80" as="geometry" />
        </mxCell>
        <mxCell id="oA63LBbkJ7_AMW4d10xA-9" value="UC2&amp;nbsp; tipování výsledku" style="ellipse;whiteSpace=wrap;html=1;" vertex="1" parent="1">
          <mxGeometry x="290" y="250" width="120" height="80" as="geometry" />
        </mxCell>
        <mxCell id="oA63LBbkJ7_AMW4d10xA-10" value="UC3 přidání komentáře" style="ellipse;whiteSpace=wrap;html=1;" vertex="1" parent="1">
          <mxGeometry x="290" y="360" width="120" height="80" as="geometry" />
        </mxCell>
        <mxCell id="oA63LBbkJ7_AMW4d10xA-11" value="" style="endArrow=none;html=1;rounded=0;entryX=0;entryY=0.5;entryDx=0;entryDy=0;" edge="1" parent="1" target="oA63LBbkJ7_AMW4d10xA-8">
          <mxGeometry width="50" height="50" relative="1" as="geometry">
            <mxPoint x="80" y="160" as="sourcePoint" />
            <mxPoint x="440" y="420" as="targetPoint" />
          </mxGeometry>
        </mxCell>
        <mxCell id="oA63LBbkJ7_AMW4d10xA-12" value="" style="endArrow=none;html=1;rounded=0;entryX=0;entryY=0.5;entryDx=0;entryDy=0;" edge="1" parent="1" target="oA63LBbkJ7_AMW4d10xA-9">
          <mxGeometry width="50" height="50" relative="1" as="geometry">
            <mxPoint x="80" y="360" as="sourcePoint" />
            <mxPoint x="440" y="420" as="targetPoint" />
          </mxGeometry>
        </mxCell>
        <mxCell id="oA63LBbkJ7_AMW4d10xA-13" value="" style="endArrow=none;html=1;rounded=0;entryX=0;entryY=0.5;entryDx=0;entryDy=0;" edge="1" parent="1" target="oA63LBbkJ7_AMW4d10xA-10">
          <mxGeometry width="50" height="50" relative="1" as="geometry">
            <mxPoint x="80" y="360" as="sourcePoint" />
            <mxPoint x="440" y="420" as="targetPoint" />
          </mxGeometry>
        </mxCell>
        <mxCell id="oA63LBbkJ7_AMW4d10xA-14" value="U4 Admin oprávnění" style="ellipse;whiteSpace=wrap;html=1;" vertex="1" parent="1">
          <mxGeometry x="294" y="480" width="120" height="80" as="geometry" />
        </mxCell>
        <mxCell id="oA63LBbkJ7_AMW4d10xA-15" value="u5 spravuje obsah" style="ellipse;whiteSpace=wrap;html=1;" vertex="1" parent="1">
          <mxGeometry x="300" y="585" width="120" height="80" as="geometry" />
        </mxCell>
        <mxCell id="oA63LBbkJ7_AMW4d10xA-16" value="uc6 rozpis zápasu" style="ellipse;whiteSpace=wrap;html=1;" vertex="1" parent="1">
          <mxGeometry x="300" y="690" width="120" height="80" as="geometry" />
        </mxCell>
        <mxCell id="oA63LBbkJ7_AMW4d10xA-17" value="" style="ellipse;whiteSpace=wrap;html=1;" vertex="1" parent="1">
          <mxGeometry x="300" y="890" width="120" height="80" as="geometry" />
        </mxCell>
        <mxCell id="oA63LBbkJ7_AMW4d10xA-18" value="" style="endArrow=classic;html=1;rounded=0;entryX=1.025;entryY=0.4;entryDx=0;entryDy=0;entryPerimeter=0;" edge="1" parent="1" target="oA63LBbkJ7_AMW4d10xA-17">
          <mxGeometry width="50" height="50" relative="1" as="geometry">
            <mxPoint x="590" y="920" as="sourcePoint" />
            <mxPoint x="440" y="800" as="targetPoint" />
          </mxGeometry>
        </mxCell>
        <mxCell id="oA63LBbkJ7_AMW4d10xA-19" value="" style="endArrow=none;html=1;rounded=0;entryX=0;entryY=0.5;entryDx=0;entryDy=0;" edge="1" parent="1" target="oA63LBbkJ7_AMW4d10xA-14">
          <mxGeometry width="50" height="50" relative="1" as="geometry">
            <mxPoint x="80" y="560" as="sourcePoint" />
            <mxPoint x="530" y="440" as="targetPoint" />
          </mxGeometry>
        </mxCell>
        <mxCell id="oA63LBbkJ7_AMW4d10xA-21" value="" style="endArrow=none;html=1;rounded=0;entryX=0;entryY=0.5;entryDx=0;entryDy=0;" edge="1" parent="1" target="oA63LBbkJ7_AMW4d10xA-15">
          <mxGeometry width="50" height="50" relative="1" as="geometry">
            <mxPoint x="80" y="560" as="sourcePoint" />
            <mxPoint x="440" y="400" as="targetPoint" />
          </mxGeometry>
        </mxCell>
        <mxCell id="oA63LBbkJ7_AMW4d10xA-22" value="" style="endArrow=none;html=1;rounded=0;" edge="1" parent="1">
          <mxGeometry width="50" height="50" relative="1" as="geometry">
            <mxPoint x="80" y="560" as="sourcePoint" />
            <mxPoint x="300" y="730" as="targetPoint" />
          </mxGeometry>
        </mxCell>
      </root>
    </mxGraphModel>
  </diagram>
</mxfile>
